<svg width="148" height="34" viewBox="0 0 148 34" fill="none" xmlns="http://www.w3.org/2000/svg">
<g id="Wordmark">
<path id="Subtract" fill-rule="evenodd" clip-rule="evenodd" d="M76.7203 5.61204C76.7203 5.11929 76.5815 4.65884 76.3407 4.2674C66.6003 4.88558 58.2057 12.4351 56.475 17.6351C56.4716 17.6407 56.4683 17.6463 56.4649 17.6519C56.4608 17.6588 56.4566 17.6657 56.4525 17.6727C55.7024 17.442 55.3792 17.2498 55.011 17.031L55.011 17.031L55.011 17.0309L55.0109 17.0309L55.0109 17.0309C54.833 16.9252 54.6447 16.8132 54.3927 16.6877C60.548 7.04898 57.995 3.66604 53.5392 3.04712C52.2282 3.17247 51.2031 4.27297 51.2031 5.61204L51.2031 25.883C51.2031 26.283 51.2946 26.6618 51.4578 26.9996H51.2031V32.9263H76.7203L76.7203 28.4598L76.7203 26.9996L76.7203 21.6651C74.2795 22.0486 72.0682 23.7422 70.7919 25.8537C70.22 25.3004 69.5837 24.7661 68.8899 24.2637C69.2786 23.6565 69.7191 23.0671 70.206 22.5092C72.2757 20.138 74.6946 18.8779 76.6341 18.8779V13.123C72.4026 13.123 68.5284 15.6615 65.8478 18.7327C65.0688 19.6251 64.3501 20.6075 63.7213 21.653C62.8181 21.378 61.9403 21.2048 61.116 21.1351C63.2206 17.3764 66.1213 14.8311 69.0734 13.1267C71.6992 11.6107 74.4004 10.745 76.6714 10.3323C76.6877 10.3294 76.704 10.3264 76.7203 10.3235V5.61204Z" fill="#AF53F7"/>
<g id="ello">
<path d="M103.73 24.9163C103.404 26.3043 102.895 27.5476 102.205 28.6462C101.515 29.7447 100.672 30.6763 99.6775 31.4408C98.6829 32.2054 97.5546 32.7918 96.2928 33.2C95.0309 33.6083 93.6651 33.8124 92.1954 33.8124C90.3694 33.8124 88.703 33.5006 87.1962 32.8771C85.6968 32.2536 84.4127 31.374 83.3438 30.2384C82.275 29.0953 81.4436 27.7295 80.8498 26.141C80.2634 24.5451 79.9702 22.7785 79.9702 20.8412C79.9702 19.5496 80.1001 18.336 80.3599 17.2004C80.6271 16.0647 81.0057 15.0181 81.4956 14.0605C81.9929 13.103 82.5941 12.2457 83.2993 11.4886C84.0119 10.7315 84.8172 10.0894 85.7154 9.56239C86.6135 9.02795 87.5933 8.62341 88.6548 8.34877C89.7237 8.06671 90.8593 7.92568 92.0618 7.92568C93.2569 7.92568 94.374 8.063 95.4132 8.33764C96.4598 8.61228 97.4173 9.00939 98.2858 9.52898C99.1616 10.0486 99.941 10.6832 100.624 11.4329C101.314 12.1826 101.897 13.0325 102.372 13.9826C102.847 14.9327 103.211 15.9793 103.463 17.1224C103.715 18.2655 103.842 19.4866 103.842 20.7855C103.842 21.075 103.834 21.3645 103.819 21.654C103.812 21.9435 103.793 22.2478 103.764 22.567H85.4927C85.6115 23.5913 85.8527 24.508 86.2164 25.3171C86.5876 26.1187 87.0663 26.8016 87.6527 27.3658C88.2391 27.9299 88.9257 28.3604 89.7125 28.6573C90.5068 28.9542 91.3863 29.1027 92.3513 29.1027C93.821 29.1027 95.0495 28.7538 96.0367 28.0561C97.0239 27.3583 97.7921 26.3117 98.3414 24.9163H103.73ZM98.308 18.5587C98.0111 16.6065 97.3357 15.1257 96.2816 14.1162C95.235 13.0993 93.8396 12.5909 92.0952 12.5909C91.2045 12.5909 90.3917 12.7245 89.6569 12.9917C88.922 13.2589 88.2762 13.6486 87.7195 14.1608C87.1702 14.6729 86.7138 15.3001 86.35 16.0424C85.9863 16.7773 85.7265 17.616 85.5707 18.5587H98.308Z" fill="#AF53F7"/>
<path d="M112.102 33.1443H106.513V0.1875H112.102V33.1443Z" fill="#AF53F7"/>
<path d="M120.888 33.1443H115.299V0.1875H120.888V33.1443Z" fill="#AF53F7"/>
<path d="M123.55 20.8635C123.55 18.9113 123.843 17.141 124.429 15.5525C125.023 13.9641 125.858 12.6057 126.934 11.4774C128.011 10.3418 129.299 9.46589 130.798 8.8498C132.297 8.23372 133.956 7.92568 135.775 7.92568C137.593 7.92568 139.252 8.23372 140.752 8.8498C142.251 9.46589 143.539 10.3418 144.615 11.4774C145.692 12.6057 146.523 13.9641 147.109 15.5525C147.703 17.141 148 18.9113 148 20.8635C148 22.1624 147.866 23.3835 147.599 24.5266C147.332 25.6697 146.946 26.7237 146.441 27.6886C145.944 28.6462 145.332 29.5035 144.604 30.2606C143.884 31.0177 143.071 31.6598 142.166 32.1868C141.26 32.7138 140.269 33.1147 139.193 33.3893C138.124 33.6714 136.985 33.8124 135.775 33.8124C134.565 33.8124 133.422 33.6714 132.346 33.3893C131.269 33.1147 130.278 32.7138 129.373 32.1868C128.467 31.6598 127.654 31.0177 126.934 30.2606C126.214 29.5035 125.602 28.6462 125.097 27.6886C124.6 26.7237 124.218 25.6697 123.95 24.5266C123.683 23.3835 123.55 22.1624 123.55 20.8635ZM129.161 20.8635C129.161 22.1179 129.313 23.2424 129.618 24.2371C129.922 25.2243 130.356 26.0631 130.92 26.7534C131.492 27.4363 132.186 27.9596 133.002 28.3233C133.826 28.687 134.754 28.8689 135.786 28.8689C136.818 28.8689 137.742 28.687 138.558 28.3233C139.375 27.9596 140.065 27.4363 140.629 26.7534C141.201 26.0631 141.635 25.2243 141.932 24.2371C142.236 23.2424 142.389 22.1179 142.389 20.8635C142.389 19.609 142.236 18.4882 141.932 17.501C141.635 16.5063 141.201 15.6676 140.629 14.9847C140.065 14.3018 139.375 13.7785 138.558 13.4148C137.742 13.0511 136.818 12.8692 135.786 12.8692C134.754 12.8692 133.826 13.0511 133.002 13.4148C132.186 13.7785 131.492 14.3055 130.92 14.9958C130.356 15.6787 129.922 16.5138 129.618 17.501C129.313 18.4882 129.161 19.609 129.161 20.8635Z" fill="#AF53F7"/>
</g>
<g id="sc">
<path d="M11.1007 7.92566C12.8376 7.92566 14.3852 8.11865 15.7436 8.50463C17.1019 8.89061 18.2487 9.4436 19.184 10.1636C20.1193 10.8836 20.8318 11.7595 21.3217 12.7912C21.8116 13.8156 22.0566 14.9698 22.0566 16.2539H16.5564C16.5564 15.6527 16.4376 15.1108 16.2001 14.6284C15.97 14.1385 15.6285 13.7228 15.1757 13.3814C14.723 13.0399 14.1588 12.7764 13.4834 12.5908C12.8153 12.4053 12.0471 12.3125 11.1786 12.3125C10.3992 12.3125 9.68664 12.3867 9.04086 12.5352C8.40251 12.6762 7.84952 12.8803 7.38189 13.1475C6.92168 13.4148 6.56539 13.7339 6.31302 14.1051C6.06064 14.4762 5.93446 14.8882 5.93446 15.341C5.93446 15.6972 6.00497 16.009 6.14601 16.2762C6.29446 16.536 6.49487 16.7661 6.74725 16.9665C7.00704 17.1669 7.31137 17.3377 7.66024 17.4787C8.00911 17.6197 8.38767 17.7459 8.79591 17.8572C9.20416 17.9612 9.63097 18.054 10.0763 18.1356C10.5217 18.2098 10.9708 18.2841 11.4236 18.3583L13.0603 18.6255C13.565 18.7071 14.0883 18.7962 14.6302 18.8927C15.1794 18.9892 15.7324 19.108 16.2891 19.249C16.8458 19.3826 17.3951 19.5459 17.937 19.7389C18.4788 19.9245 18.991 20.1509 19.4735 20.4181C19.9634 20.6853 20.4162 20.9971 20.8318 21.3533C21.2475 21.7022 21.6075 22.1105 21.9118 22.5781C22.2162 23.0383 22.4537 23.5653 22.6244 24.1591C22.7952 24.7455 22.8805 25.4061 22.8805 26.141C22.8805 27.3657 22.6319 28.4532 22.1345 29.4033C21.6446 30.3534 20.9209 31.155 19.9634 31.8082C19.0133 32.4614 17.8368 32.9588 16.4339 33.3002C15.031 33.6416 13.4166 33.8124 11.5906 33.8124C9.68293 33.8124 8.0054 33.6231 6.55797 33.2445C5.11054 32.8734 3.90064 32.3278 2.92826 31.6078C1.95588 30.8804 1.22475 29.9897 0.734849 28.9356C0.24495 27.8742 0 26.6606 0 25.2948H5.4891C5.4891 26.6161 5.98642 27.633 6.98106 28.3455C7.98313 29.0507 9.51221 29.4033 11.5683 29.4033C12.4813 29.4033 13.2978 29.3328 14.0178 29.1917C14.7378 29.0507 15.3465 28.8466 15.8438 28.5794C16.3485 28.3121 16.7308 27.9818 16.9906 27.5884C17.2578 27.195 17.3914 26.7459 17.3914 26.2412C17.3914 25.8404 17.3172 25.4915 17.1687 25.1946C17.0203 24.8977 16.8087 24.6379 16.5341 24.4152C16.2669 24.1851 15.9477 23.9921 15.5766 23.8362C15.2054 23.6729 14.7972 23.5319 14.3518 23.4131C13.9065 23.287 13.4314 23.1756 12.9267 23.0791C12.4293 22.9826 11.9172 22.8898 11.3902 22.8008L9.75344 22.5224C9.14478 22.4185 8.48787 22.2997 7.78271 22.1661C7.08498 22.0251 6.39096 21.847 5.70064 21.6317C5.01775 21.409 4.35713 21.1344 3.71878 20.8078C3.08785 20.4738 2.52743 20.0655 2.03753 19.583C1.55506 19.0931 1.16908 18.5104 0.879591 17.835C0.590106 17.1595 0.445363 16.3653 0.445363 15.4523C0.445363 14.2943 0.686601 13.2515 1.16908 12.3236C1.65898 11.3958 2.36413 10.609 3.28455 9.9632C4.20497 9.31 5.32209 8.80896 6.63591 8.4601C7.95715 8.1038 9.4454 7.92566 11.1007 7.92566Z" fill="#AF53F7"/>
<path d="M30.3104 20.8634C30.3104 22.1179 30.4626 23.2424 30.7669 24.2371C31.0712 25.2243 31.5055 26.0631 32.0696 26.7534C32.6411 27.4363 33.3352 27.9596 34.1517 28.3233C34.9756 28.687 35.9034 28.8688 36.9352 28.8688C37.8259 28.8688 38.609 28.7389 39.2845 28.4792C39.9674 28.2119 40.5538 27.8445 41.0437 27.3769C41.5336 26.9092 41.9307 26.36 42.235 25.729C42.5468 25.0907 42.7731 24.4041 42.9142 23.6692H48.4923C48.3662 24.6416 48.1435 25.5657 47.8243 26.4416C47.5126 27.3175 47.1117 28.134 46.6218 28.8911C46.1319 29.6408 45.5567 30.32 44.896 30.9286C44.2354 31.5299 43.4969 32.0458 42.6804 32.4763C41.8639 32.9068 40.9731 33.2371 40.0082 33.4672C39.0507 33.6973 38.0226 33.8124 36.924 33.8124C35.7141 33.8124 34.571 33.6713 33.4948 33.3893C32.4259 33.1146 31.4387 32.7138 30.5331 32.1868C29.6275 31.6598 28.811 31.0177 28.0836 30.2606C27.3636 29.5035 26.7512 28.6462 26.2465 27.6886C25.7492 26.7237 25.3669 25.6697 25.0997 24.5266C24.8325 23.3835 24.6988 22.1624 24.6988 20.8634C24.6988 18.9113 24.992 17.141 25.5784 15.5525C26.1723 13.964 27.0073 12.6057 28.0836 11.4774C29.1599 10.3418 30.4477 9.46587 31.9471 8.84979C33.4465 8.2337 35.1055 7.92566 36.924 7.92566C38.5719 7.92566 40.0639 8.18174 41.3999 8.69391C42.7435 9.20608 43.9088 9.91495 44.896 10.8205C45.8833 11.7187 46.6812 12.7875 47.2899 14.0271C47.906 15.2667 48.3068 16.6139 48.4923 18.0688H42.9142C42.7806 17.3339 42.5579 16.6511 42.2461 16.0201C41.9418 15.3818 41.5447 14.8288 41.0548 14.3612C40.5649 13.8935 39.9785 13.5298 39.2956 13.27C38.6127 13.0028 37.8259 12.8692 36.9352 12.8692C35.9034 12.8692 34.9756 13.051 34.1517 13.4148C33.3352 13.7785 32.6411 14.3055 32.0696 14.9958C31.5055 15.6787 31.0712 16.5137 30.7669 17.501C30.4626 18.4882 30.3104 19.609 30.3104 20.8634Z" fill="#AF53F7"/>
</g>
</g>
</svg>
