<svg width="148" height="148" viewBox="0 0 148 148" fill="none" xmlns="http://www.w3.org/2000/svg">
<rect width="148" height="148" rx="30" fill="url(#paint0_linear_254_1559)"/>
<path fill-rule="evenodd" clip-rule="evenodd" d="M112 37.64C112 36.1723 111.587 34.8008 110.869 33.6348C81.8587 35.4762 56.8565 57.9636 51.7018 73.4526C51.6918 73.4693 51.6818 73.486 51.6718 73.5028C51.6594 73.5234 51.6471 73.544 51.6348 73.5646C49.4008 72.8774 48.438 72.3051 47.3415 71.6532C46.8118 71.3383 46.2505 71.0047 45.5 70.6307C63.8327 41.9202 56.2291 31.8436 42.9578 30C39.0532 30.3734 36 33.6514 36 37.64L36 98.0204C36 99.212 36.2725 100.34 36.7588 101.346H36V119H112L112 85.4568C104.73 86.5991 98.1443 91.6438 94.3431 97.9331C92.6396 96.2852 90.7444 94.6937 88.6782 93.1973C89.8357 91.3886 91.1479 89.6327 92.5981 87.9711C98.7625 80.908 105.967 77.1546 111.743 77.1545V60.0127C99.1404 60.0127 87.6015 67.5741 79.6175 76.7222C77.2976 79.3804 75.1568 82.3064 73.2842 85.4206C70.5939 84.6015 67.9797 84.0857 65.5245 83.8781C71.7928 72.6821 80.4322 65.1006 89.2245 60.0238C97.0453 55.5081 105.091 52.9295 111.854 51.7003C111.903 51.6914 111.952 51.6826 112 51.674V37.64Z" fill="white"/>
<defs>
<linearGradient id="paint0_linear_254_1559" x1="74" y1="0" x2="74" y2="148" gradientUnits="userSpaceOnUse">
<stop stop-color="#14443B"/>
<stop offset="1" stop-color="#1A706B"/>
</linearGradient>
</defs>
</svg>
